<svg xmlns="http://www.w3.org/2000/svg" viewBox="0 0 56.8 23.5" enable-background="new 0 0 56.8 23.5"><path fill="#F8F8F8" stroke="#BABABA" stroke-width=".25" stroke-linejoin="round" d="M16.4 23.4H1.2c-.5 0-1-.4-1-1v-8.1c0-.5.4-1 1-1h15.3c.5 0 1 .4 1 1v8.1c-.1.5-.5 1-1.1 1zM55.6 23.4H40.4c-.5 0-1-.4-1-1v-8.1c0-.5.4-1 1-1h15.3c.5 0 1 .4 1 1v8.1c-.1.5-.5 1-1.1 1z"/><path fill-rule="evenodd" clip-rule="evenodd" fill="#5B5B5B" d="M46.8 16.9V20s0 .1.1.1l2.7-1.5v-.2L47 16.9c-.1-.1-.1-.1-.2 0 .1-.1 0-.1 0 0z"/><path fill="#F8F8F8" stroke="#BABABA" stroke-width=".25" stroke-linejoin="round" d="M36 23.4H20.8c-.5 0-1-.4-1-1v-8.1c0-.5.4-1 1-1H36c.5 0 1 .4 1 1v8.1c0 .5-.4 1-1 1z"/><path fill-rule="evenodd" clip-rule="evenodd" fill="#5B5B5B" d="M29.9 17h-3.1s-.1 0-.1.1l1.5 2.7h.2l1.5-2.6c.1-.1.1-.1 0-.2.1 0 .1 0 0 0z"/><path fill="#F8F8F8" stroke="#BABABA" stroke-width=".25" stroke-linejoin="round" d="M36 10.4H20.8c-.5 0-1-.4-1-1V1.3c0-.5.4-1 1-1H36c.5 0 1 .4 1 1v8.1c0 .5-.4 1-1 1z"/><path fill-rule="evenodd" clip-rule="evenodd" fill="#5B5B5B" d="M26.9 6.8H30s.1 0 .1-.1L28.5 4h-.2l-1.5 2.6c0 .1 0 .1.1.2-.1-.1 0 0 0 0zM10.2 19.9v-3.1s0-.1-.1-.1l-2.7 1.5v.2l2.6 1.5c.1.1.1.1.2 0-.1.1 0 0 0 0z"/></svg>