<?xml version="1.0" encoding="utf-8"?>
<!-- Generator: Adobe Illustrator 18.0.0, SVG Export Plug-In . SVG Version: 6.00 Build 0)  -->
<!DOCTYPE svg PUBLIC "-//W3C//DTD SVG 1.1//EN" "http://www.w3.org/Graphics/SVG/1.1/DTD/svg11.dtd">
<svg version="1.1" id="Layer_1" xmlns="http://www.w3.org/2000/svg" xmlns:xlink="http://www.w3.org/1999/xlink" x="0px" y="0px"
	 viewBox="0 0 56.8 23.5" enable-background="new 0 0 56.8 23.5" xml:space="preserve">
<path fill="#F8F8F8" stroke="#BABABA" stroke-width="0.25" stroke-linejoin="round" d="M16.4,23.4H1.2c-0.5,0-1-0.4-1-1v-8.1
	c0-0.5,0.4-1,1-1h15.3c0.5,0,1,0.4,1,1v8.1C17.4,22.9,17,23.4,16.4,23.4z"/>
<path fill="#F8F8F8" stroke="#BABABA" stroke-width="0.25" stroke-linejoin="round" d="M55.6,23.4H40.4c-0.5,0-1-0.4-1-1v-8.1
	c0-0.5,0.4-1,1-1h15.3c0.5,0,1,0.4,1,1v8.1C56.6,22.9,56.2,23.4,55.6,23.4z"/>
<path fill-rule="evenodd" clip-rule="evenodd" fill="#5B5B5B" d="M46.8,16.9v3.1c0,0,0,0.1,0.1,0.1c0,0,0,0,0,0l2.7-1.5
	c0,0,0,0,0-0.1c0,0,0,0,0-0.1l-2.6-1.5C46.9,16.8,46.9,16.8,46.8,16.9C46.9,16.8,46.8,16.8,46.8,16.9z"/>
<path fill="#F8F8F8" stroke="#BABABA" stroke-width="0.25" stroke-linejoin="round" d="M36,23.4H20.8c-0.5,0-1-0.4-1-1v-8.1
	c0-0.5,0.4-1,1-1H36c0.5,0,1,0.4,1,1v8.1C37,22.9,36.6,23.4,36,23.4z"/>
<path fill-rule="evenodd" clip-rule="evenodd" fill="#5B5B5B" d="M29.9,17h-3.1c0,0-0.1,0-0.1,0.1c0,0,0,0,0,0l1.5,2.7
	c0,0,0,0,0.1,0c0,0,0,0,0.1,0l1.5-2.6C30,17.1,30,17.1,29.9,17C30,17,30,17,29.9,17z"/>
<g>
	<path fill="#F8F8F8" stroke="#BABABA" stroke-width="0.25" stroke-linejoin="round" d="M36,10.4H20.8c-0.5,0-1-0.4-1-1V1.3
		c0-0.5,0.4-1,1-1H36c0.5,0,1,0.4,1,1v8.1C37,9.9,36.6,10.4,36,10.4z"/>
	<path fill-rule="evenodd" clip-rule="evenodd" fill="#5B5B5B" d="M26.9,6.8H30c0,0,0.1,0,0.1-0.1c0,0,0,0,0,0L28.5,4c0,0,0,0-0.1,0
		c0,0,0,0-0.1,0l-1.5,2.6C26.8,6.7,26.8,6.7,26.9,6.8C26.8,6.7,26.9,6.8,26.9,6.8z"/>
</g>
<path fill-rule="evenodd" clip-rule="evenodd" fill="#5B5B5B" d="M10.2,19.9v-3.1c0,0,0-0.1-0.1-0.1c0,0,0,0,0,0l-2.7,1.5
	c0,0,0,0,0,0.1c0,0,0,0,0,0.1l2.6,1.5C10.1,20,10.1,20,10.2,19.9C10.1,20,10.2,19.9,10.2,19.9z"/>
</svg>
